# xmcd
#
# Track frame offsets:
#	150
#	8920
#	29609
#	48681
#	63747
#	76812
#	89612
#	105537
#	116660
#	142959
#	163577
#	176879
#	199528
#	212502
#	224982
#
# Disc length: 3177 seconds
#
# Revision: 5
# Processed by: cddbd v1.5.2PL0 Copyright (c) Steve Scherf et al.
# Submitted via: audiograbber 1.83.01
#
DISCID=df0c670f
DTITLE=Blues Giants (Vol. 3) - Blues Giants (Vol. 3)
DYEAR=2000
DGENRE=Blues
TTITLE0=Magic Sam - Black magic blues
TTITLE1=Buddy Guy and Junior Wells - Buddy's blues
TTITLE2=Lightnin' Hopkins - Good times
TTITLE3=Billy Boy Arnold and Tony McPhee - Just a dream
TTITLE4=Leadbelly - The good morning blues
TTITLE5=Jimmy Reed - Honest I do
TTITLE6=Magic Sam - Feeling the blues
TTITLE7=John Lee Hooker - Hard hearted woman
TTITLE8=John Mayall - Mexico City
TTITLE9=Memphis Slim - The lord have mercy
TTITLE10=Lightnin' Slim - Good morning heartaches
TTITLE11=Bo Diddley - Mona
TTITLE12=Etta James - Dance with me Henry
TTITLE13=Big Joe Williams - Shake 'em on down
TTITLE14=Brownie McGhee - Born for bad luck
EXTD=
EXTT0=
EXTT1=
EXTT2=
EXTT3=
EXTT4=
EXTT5=
EXTT6=
EXTT7=
EXTT8=
EXTT9=
EXTT10=
EXTT11=
EXTT12=
EXTT13=
EXTT14=
PLAYORDER=
